<svg xmlns="http://www.w3.org/2000/svg" width="600.616" height="306.397" viewBox="0 0 600.616 306.397">
  <g id="Group_19581" data-name="Group 19581" transform="translate(0 -4.603)">
    <g id="Group_19579" data-name="Group 19579" transform="translate(29.925 4.603)">
      <g id="Group_19577" data-name="Group 19577">
        <path id="Path_84966" data-name="Path 84966" d="M3586.279,1347.413l.617-.432-1.172-1.481-.124,1.913Z" transform="translate(-3274.69 -1113.27)" fill="#ccc"/>
        <path id="Path_84967" data-name="Path 84967" d="M3546.03,1265.65l.123-1.913-.739-.123h-.679l.123-1.913L3481,1178.652l73.486-49.052-9.626,132.1,1.173,1.481-.617.432.739.123L3556.21,1126.7l-77.311,51.582Z" transform="translate(-3233.825 -1010.003)" fill="#ccc"/>
        <path id="Path_84968" data-name="Path 84968" d="M3601.546,1129.025l.679-.308-.431-.617-.494.308Z" transform="translate(-3280.704 -956.683)" fill="#ccc"/>
        <path id="Path_84969" data-name="Path 84969" d="M3490.882,784.818l140.132-19.313-.451-.209-1.236.116-1.237.116-.451-.232-134.732,18.569-98.634-126.4L3627.639,765.3l.9-.116.788.232,1.236-.116-237.976-110-2.587.139Z" transform="translate(-3308.565 -487.686)" fill="#ccc"/>
        <path id="Path_84970" data-name="Path 84970" d="M3602.188,1126.611l.679-.309-1.666-3.7.247,4.011Z" transform="translate(-3280.665 -953.881)" fill="#ccc"/>
        <path id="Path_84971" data-name="Path 84971" d="M3479.285,1210.072l.74-.123.186-.74-1.11-.309Z" transform="translate(-3233.901 -1008.409)" fill="#ccc"/>
        <path id="Path_84972" data-name="Path 84972" d="M3874.066,1413.589l.555-.555.124-.678-2.345-.555Z" transform="translate(-3384.532 -1160.626)" fill="#ccc"/>
        <path id="Path_84973" data-name="Path 84973" d="M3766.9,1304.924l-1.666-1.728-.494.494-.556.555-1.666-1.789-175.477-39.55,9.749-133.212,165.728,172.762,2.345.555-.123.679.494-.494-169.677-176.9L3585.5,1264.078Z" transform="translate(-3274.651 -1037.703)" fill="#ccc"/>
        <path id="Path_84974" data-name="Path 84974" d="M3602.341,1125.768l.74-.062-.309-5.306-1.172,5.183Z" transform="translate(-3280.818 -952.787)" fill="#ccc"/>
        <path id="Path_84975" data-name="Path 84975" d="M3390.741,654.589l.554-.37-.925-1.419-.37,1.666Z" transform="translate(-3199.776 -652.8)" fill="#ccc"/>
        <path id="Path_84976" data-name="Path 84976" d="M3093.608,1487.436l166.345-20.423-8.33,12.217.309-.062.062.8-.617-.432.247-.309-144.071,8.206h25.667l119.206-6.787.186-.308,9.44-13.883.926-1.357L3081.7,1487.436Z" transform="translate(-3081.7 -1181.039)" fill="#ccc"/>
        <path id="Path_84977" data-name="Path 84977" d="M3356.7,1488.27l.617.432-.062-.8-.309.062Z" transform="translate(-3187.023 -1189.771)" fill="#ccc"/>
        <path id="Path_84978" data-name="Path 84978" d="M3505.046,1295.075l-.494-.679-.617.432-.555.494-.556-.679-129.2,71.326,65.032-154.869,64.168,83.543.741-.432.37.617.617-.432-66.267-86.2L3370.6,1369.362Z" transform="translate(-3192.347 -1082.648)" fill="#ccc"/>
        <path id="Path_84979" data-name="Path 84979" d="M3585.456,1348.71l.555-.493-.37-.617-.741.432Z" transform="translate(-3274.421 -1114.234)" fill="#ccc"/>
        <path id="Path_84980" data-name="Path 84980" d="M3389.894,655.749l.617-.432-.371-.617-.74.37Z" transform="translate(-3199.546 -653.528)" fill="#ccc"/>
        <path id="Path_84981" data-name="Path 84981" d="M3875.617,1413.072l.494-.493-.679-.679-.432.8Z" transform="translate(-3385.528 -1160.664)" fill="#ccc"/>
        <path id="Path_84982" data-name="Path 84982" d="M3366.5,1487.282l-8.391-7.589,8.515-12.587,16.968,20.176h1.913l-19-22.583-10,14.685-.309.493,8.145,7.4Z" transform="translate(-3186.832 -1180.886)" fill="#ccc"/>
        <path id="Path_84983" data-name="Path 84983" d="M3391.252,1441.9l-17.832-21.163,129.51-71.449-28.938,92.613h1.6l29.863-95.7L3371.2,1420.3l18.141,21.6Z" transform="translate(-3192.576 -1135.501)" fill="#ccc"/>
        <path id="Path_84984" data-name="Path 84984" d="M3539.4,1442.319l29.062-93.291,175.909,39.612-97.24,53.679h3.023l98.351-54.235-181.03-40.784-29.678,95.019Z" transform="translate(-3256.383 -1135.922)" fill="#ccc"/>
        <path id="Path_84985" data-name="Path 84985" d="M3149.306,1496.168l115.874-6.6-10.8,6.6h2.9l11.167-6.849-.431-1.419-144.318,8.268Z" transform="translate(-3097.786 -1189.771)" fill="#ccc"/>
        <path id="Path_84986" data-name="Path 84986" d="M3371.434,1466.8l.494-.617-.124-.678-1.6.185Z" transform="translate(-3192.193 -1181.192)" fill="#ccc"/>
        <path id="Path_84987" data-name="Path 84987" d="M3372.579,1465.834l.494-.555-.8-.679-.371.987Z" transform="translate(-3192.844 -1180.848)" fill="#ccc"/>
      </g>
      <g id="Group_19578" data-name="Group 19578" transform="translate(149.007 39.674)" opacity="0.7">
        <path id="Path_84988" data-name="Path 84988" d="M3568.135,1032.611l.061-.74-.616-.37-.679.987Z" transform="translate(-3416.535 -924.766)" fill="#ccc"/>
        <path id="Path_84989" data-name="Path 84989" d="M3348.9,718.334l2.284.494-1.543-1.728-.555.494Z" transform="translate(-3333.043 -717.1)" fill="#ccc"/>
        <path id="Path_84990" data-name="Path 84990" d="M3348.3,718.394l1.3,1.419V717.9h-.741Z" transform="translate(-3332.813 -717.406)" fill="#ccc"/>
        <path id="Path_84991" data-name="Path 84991" d="M3575.4,972.487l.987-.185-.124-.74-.74-.062Z" transform="translate(-3419.791 -885.117)" fill="#ccc"/>
        <path id="Path_84992" data-name="Path 84992" d="M3576.862,972.341l.617-.062.062-.555-.74-.123Z" transform="translate(-3420.327 -885.147)" fill="#ccc"/>
        <path id="Path_84993" data-name="Path 84993" d="M4002.3,1130.387l1.974.925-.988-1.913-.617.309Z" transform="translate(-3583.29 -989.621)" fill="#ccc"/>
        <path id="Path_84994" data-name="Path 84994" d="M4004.1,1130Z" transform="translate(-3583.979 -989.564)" fill="#ccc"/>
        <path id="Path_84995" data-name="Path 84995" d="M4002.4,1129.862l.741.062-.062-.123H4001.6Z" transform="translate(-3583.022 -989.461)" fill="#ccc"/>
        <path id="Path_84996" data-name="Path 84996" d="M3569.185,1032.764l.678-.185-.123-.679-.74.124Z" transform="translate(-3417.339 -924.986)" fill="#ccc"/>
        <path id="Path_84997" data-name="Path 84997" d="M3591.462,1146.94l.617-.062.062-.617-.74-.062Z" transform="translate(-3425.919 -1000.436)" fill="#ccc"/>
        <path id="Path_84998" data-name="Path 84998" d="M3555.28,1358.559l22.4-218.421-.616.062-.062-.741.741.062-.062.617,251.369-9.934-219.223,228.354h2.1L3832.687,1128.6l-256.367,10.119-.062.617L3553.8,1358.559Z" transform="translate(-3411.518 -1091.836)" fill="#ccc"/>
        <path id="Path_84999" data-name="Path 84999" d="M3537.208,1059.21l.556-.432.617-.494.308.432,17.585-25.853,12.957,65.588-30.542-39.735-.308.432-.617-.37-.556.432,32.763,42.574,1.3-.555-14.191-72.128-20.176,29.678Z" transform="translate(-3405.046 -938.253)" fill="#ccc"/>
        <path id="Path_85000" data-name="Path 85000" d="M3538.917,1077.264l.309-.432-.309-.432-.617.494Z" transform="translate(-3405.582 -954.372)" fill="#ccc"/>
        <path id="Path_85001" data-name="Path 85001" d="M3537.77,1078.125l.555-.308-.37-.617-.555.432Z" transform="translate(-3405.237 -954.913)" fill="#ccc"/>
        <path id="Path_85002" data-name="Path 85002" d="M3456.225,1076.587l.37.617-.555.309,31.653,41.093-159,29.184,127.35-70.277-.37-.494.556-.432-.309-.679L3324,1148.715l.555,1.357,165.729-30.418-33.812-44.055-.556.308Z" transform="translate(-3323.506 -971.724)" fill="#ccc"/>
        <path id="Path_85003" data-name="Path 85003" d="M3324.785,1195.726l.74-.123-.185-.8-.741.185Z" transform="translate(-3323.736 -1032.578)" fill="#ccc"/>
        <path id="Path_85004" data-name="Path 85004" d="M3369.907,1364.687h1.543l-46.461-188.311-.74.124-.185-.74.74-.185.185.8,162.521-29.863-82.988,218.174h1.542l83.791-220.086L3323.2,1175.142l.186.74Z" transform="translate(-3323.2 -1097.964)" fill="#ccc"/>
        <path id="Path_85005" data-name="Path 85005" d="M3456.543,1365.108l81.322-213.546.555-5.677.74.123.68.247-1.975,5.306-21.9,213.546h1.48L3539.9,1146.07l-1.419-.37L3455,1365.108Z" transform="translate(-3373.678 -1098.385)" fill="#ccc"/>
        <path id="Path_85006" data-name="Path 85006" d="M3589.855,1146l-.556,5.677,1.974-5.306-.678-.247Z" transform="translate(-3425.114 -1001.532)" fill="#ccc"/>
        <path id="Path_85007" data-name="Path 85007" d="M3323.809,1196.458l.863-.8-.493-.555-.679.123Z" transform="translate(-3323.315 -1032.895)" fill="#ccc"/>
      </g>
    </g>
    <g id="Group_19580" data-name="Group 19580">
      <path id="Path_85008" data-name="Path 85008" d="M3474.685,1206.419a4.707,4.707,0,1,0,6.54-1.234A4.682,4.682,0,0,0,3474.685,1206.419Z" transform="translate(-3201.967 -1003.825)" fill="#4d4d4d"/>
      <path id="Path_85009" data-name="Path 85009" d="M3594.385,1121.519a4.706,4.706,0,1,0,6.54-1.234A4.681,4.681,0,0,0,3594.385,1121.519Z" transform="translate(-3247.812 -949.38)" fill="#fff"/>
      <path id="Path_85010" data-name="Path 85010" d="M3610.731,1006.185a9.952,9.952,0,1,0,13.822-2.653,9.934,9.934,0,0,0-13.822,2.653Z" transform="translate(-3253.731 -875.837)" fill="#8e6f3e"/>
      <path id="Path_85011" data-name="Path 85011" d="M3857.832,1399.185a9.951,9.951,0,1,0,13.821-2.653A9.933,9.933,0,0,0,3857.832,1399.185Z" transform="translate(-3348.369 -1149.516)" fill="#4d4d4d"/>
      <path id="Path_85012" data-name="Path 85012" d="M3049.982,1497.3a8.72,8.72,0,0,0-15.61-2.653,8.5,8.5,0,0,0-1.172,2.653Z" transform="translate(-3033.2 -1186.298)" fill="#4d4d4d"/>
      <path id="Path_85013" data-name="Path 85013" d="M3526.521,1072.839a5.331,5.331,0,1,0,7.4-1.419A5.288,5.288,0,0,0,3526.521,1072.839Z" transform="translate(-3221.78 -918.244)" fill="#900"/>
      <path id="Path_85014" data-name="Path 85014" d="M3351.081,1488.321a2.884,2.884,0,1,0,4.01-.74A2.885,2.885,0,0,0,3351.081,1488.321Z" transform="translate(-3154.75 -1184.849)" fill="#4d4d4d"/>
      <path id="Path_85015" data-name="Path 85015" d="M3566.806,963.986a5.6,5.6,0,1,0,7.774-1.481A5.63,5.63,0,0,0,3566.806,963.986Z" transform="translate(-3237.2 -848.392)" fill="#4d4d4d"/>
      <path id="Path_85016" data-name="Path 85016" d="M3315.605,1191.286a5.6,5.6,0,1,0,7.774-1.481A5.632,5.632,0,0,0,3315.605,1191.286Z" transform="translate(-3140.992 -994.352)" fill="#00a5db"/>
      <path id="Path_85017" data-name="Path 85017" d="M3441.481,993.821a2.884,2.884,0,1,0,4.011-.74A2.884,2.884,0,0,0,3441.481,993.821Z" transform="translate(-3189.372 -867.382)" fill="#4d4d4d"/>
      <path id="Path_85018" data-name="Path 85018" d="M3344.081,714.521a2.884,2.884,0,1,0,4.01-.74A2.884,2.884,0,0,0,3344.081,714.521Z" transform="translate(-3322.068 -490.355)" fill="#fa2a2a"/>
      <path id="Path_85019" data-name="Path 85019" d="M3443.449,1041.2a7.016,7.016,0,1,0,9.749-1.851A7.026,7.026,0,0,0,3443.449,1041.2Z" transform="translate(-3189.859 -898.139)" fill="#73fbfd"/>
      <path id="Path_85020" data-name="Path 85020" d="M3379.65,648.4a7.016,7.016,0,1,0,9.749-1.851A7.026,7.026,0,0,0,3379.65,648.4Z" transform="translate(-3271.066 -478.846)" fill="#900"/>
      <path id="Path_85021" data-name="Path 85021" d="M3579.706,1342.584a6.914,6.914,0,1,0,.062-.062h0Z" transform="translate(-3242.141 -1107.737)" fill="#4d4d4d"/>
      <path id="Path_85022" data-name="Path 85022" d="M3997.781,1125.621a2.884,2.884,0,1,0,4.011-.74A2.884,2.884,0,0,0,3997.781,1125.621Z" transform="translate(-3402.43 -951.665)" fill="#4d4d4d"/>
      <path id="Path_85023" data-name="Path 85023" d="M3927.08,1201.721a2.884,2.884,0,1,0,4.011-.74A2.885,2.885,0,0,0,3927.08,1201.721Z" transform="translate(-3375.353 -1000.328)" fill="#4d4d4d"/>
      <path id="Path_85024" data-name="Path 85024" d="M3639.581,938.421a2.884,2.884,0,1,0,4.01-.74A2.886,2.886,0,0,0,3639.581,938.421Z" transform="translate(-3265.242 -831.955)" fill="#4d4d4d"/>
      <path id="Path_85025" data-name="Path 85025" d="M3358.008,1457.837a7.239,7.239,0,1,0,10.057-1.913A7.177,7.177,0,0,0,3358.008,1457.837Z" transform="translate(-3157.11 -1172.443)" fill="#f8bc33"/>
      <path id="Path_85026" data-name="Path 85026" d="M3461.081,1114.821a2.884,2.884,0,1,0,4.01-.74A2.885,2.885,0,0,0,3461.081,1114.821Z" transform="translate(-3196.878 -944.758)" fill="#fff"/>
      <path id="Path_85027" data-name="Path 85027" d="M3530.312,976.544a1.729,1.729,0,1,0,2.406-.432A1.748,1.748,0,0,0,3530.312,976.544Z" transform="translate(-3223.475 -856.289)" fill="#4d4d4d"/>
      <path id="Path_85028" data-name="Path 85028" d="M3409.714,786.846a1.706,1.706,0,0,0,.493,2.406,1.729,1.729,0,1,0,1.975-2.838,1.706,1.706,0,0,0-2.406.494h-.062Z" transform="translate(-3319.287 -601.116)" fill="#f510e4"/>
      <path id="Path_85029" data-name="Path 85029" d="M3399.013,726.844a1.728,1.728,0,1,0,2.837,1.974,1.706,1.706,0,0,0-.494-2.406,1.747,1.747,0,0,0-2.406.432Z" transform="translate(-3221.157 -506.642)" fill="#8e6f3e"/>
      <path id="Path_85030" data-name="Path 85030" d="M3390.014,672.644a1.706,1.706,0,0,0,.494,2.406,1.729,1.729,0,1,0-.432-2.406Z" transform="translate(-3212.225 -550.17)" fill="#00a5db"/>
      <path id="Path_85031" data-name="Path 85031" d="M3582.314,1135.606a1.737,1.737,0,1,0,2.406-.494,1.747,1.747,0,0,0-2.406.432h0Z" transform="translate(-3243.392 -957.797)" fill="#4d4d4d"/>
      <path id="Path_85032" data-name="Path 85032" d="M3588.715,1148.006a1.736,1.736,0,1,0,2.406-.494,1.746,1.746,0,0,0-2.406.432h0Z" transform="translate(-3245.843 -965.713)" fill="#4d4d4d"/>
      <path id="Path_85033" data-name="Path 85033" d="M3624.412,1016.544a1.729,1.729,0,1,0,2.838,1.974,1.705,1.705,0,0,0-.494-2.406,1.746,1.746,0,0,0-2.406.432Z" transform="translate(-3259.514 -881.822)" fill="#4d4d4d"/>
      <path id="Path_85034" data-name="Path 85034" d="M3575.812,1076.206a1.747,1.747,0,0,0,.431,2.406,1.706,1.706,0,0,0,2.406-.494,1.728,1.728,0,1,0-2.837-1.975h0Z" transform="translate(-3240.9 -919.879)" fill="#4d4d4d"/>
      <path id="Path_85035" data-name="Path 85035" d="M3566.212,1029.608a1.747,1.747,0,0,0,.432,2.406,1.706,1.706,0,0,0,2.406-.494,1.746,1.746,0,0,0-.432-2.406A1.705,1.705,0,0,0,3566.212,1029.608Z" transform="translate(-3237.224 -890.134)" fill="#4d4d4d"/>
      <path id="Path_85036" data-name="Path 85036" d="M3387.015,1456.344a1.706,1.706,0,0,0,.493,2.406,1.746,1.746,0,0,0,2.406-.432,1.706,1.706,0,0,0-.493-2.406A1.747,1.747,0,0,0,3387.015,1456.344Z" transform="translate(-3168.594 -1172.802)" fill="#4d4d4d"/>
      <path id="Path_85037" data-name="Path 85037" d="M3799.412,1335.044a1.729,1.729,0,1,0,2.406-.432A1.748,1.748,0,0,0,3799.412,1335.044Z" transform="translate(-3326.538 -1103.307)" fill="#4d4d4d"/>
      <path id="Path_85038" data-name="Path 85038" d="M3558.513,1039.344a1.728,1.728,0,1,0,2.406-.432A1.747,1.747,0,0,0,3558.513,1039.344Z" transform="translate(-3234.275 -896.376)" fill="#4d4d4d"/>
      <path id="Path_85039" data-name="Path 85039" d="M3448.712,1020.644a1.729,1.729,0,1,0,2.406-.432,1.746,1.746,0,0,0-2.406.432Z" transform="translate(-3192.222 -884.439)" fill="#4d4d4d"/>
      <path id="Path_85040" data-name="Path 85040" d="M3612.583,1141.085a2.935,2.935,0,1,0,4.073-.8A2.907,2.907,0,0,0,3612.583,1141.085Z" transform="translate(-3254.903 -961.544)" fill="#4d4d4d"/>
      <path id="Path_85041" data-name="Path 85041" d="M3634.112,967.046a1.729,1.729,0,1,0,2.406-.432,1.706,1.706,0,0,0-2.406.494h0Z" transform="translate(-3263.229 -850.227)" fill="#4d4d4d"/>
      <path id="Path_85042" data-name="Path 85042" d="M3735.412,1137.944a1.729,1.729,0,0,0,2.838,1.974,1.707,1.707,0,0,0-.494-2.406,1.747,1.747,0,0,0-2.406.432Z" transform="translate(-3302.026 -959.315)" fill="#4d4d4d"/>
    </g>
  </g>
</svg>
